<?xml version="1.0" encoding="utf-8"?>
<!-- Generator: Adobe Illustrator 16.0.0, SVG Export Plug-In . SVG Version: 6.00 Build 0)  -->
<!DOCTYPE svg PUBLIC "-//W3C//DTD SVG 1.1//EN" "http://www.w3.org/Graphics/SVG/1.1/DTD/svg11.dtd">
<svg version="1.1" id="Layer_1" xmlns="http://www.w3.org/2000/svg" xmlns:xlink="http://www.w3.org/1999/xlink" x="0px" y="0px"
	 width="600px" height="360px" viewBox="0 0 600 360" enable-background="new 0 0 600 360" xml:space="preserve">
<polygon id="msu-s" display="none" fill="#004F39" points="164.125,260.593 164.125,319.81 204.307,360 390.801,360 
	426.843,323.957 426.843,183.577 381.723,138.459 251.704,138.459 251.704,76.922 346.369,76.922 346.369,105.916 426.843,105.916 
	426.843,45.364 381.472,0 209.396,0 164.125,45.266 164.125,172.63 209.542,218.043 343.998,218.043 343.998,284.257 
	248.94,284.257 248.94,260.593 "/>
<g id="msu-helmet">
	<path fill-rule="evenodd" clip-rule="evenodd" fill="#004F39" d="M359.01,70.46c20.035,4.177,36.627,10.606,49.931,19.284
		l31.542-59.793c-10.012-7.329-23.472-13.608-40.371-19.135c-34.075-11.213-68.758-12.411-103.88-3.89
		C226.115,23.82,181.269,58.649,161.396,111.111c-7.324,19.294-10.766,39.92-10.311,61.887c0.45,17.493,2.987,33.041,7.611,46.637
		c10.326,29.603,13.757,51.433,10.326,65.628c-2.542,14.652-7.48,25.267-15.097,31.999c-2.391,2.093-4.792,3.577-7.334,4.629
		l-3.29,1.041c24.81-2.841,40.372-17.937,46.64-45.296c2.396-10.457,3.149-26.452,2.098-47.833l-2.542-26.008
		c-0.9-12.857-0.455-24.515,1.496-34.826c5.681-30.651,24.513-56.508,56.516-77.438C281.727,69.263,318.793,62.237,359.01,70.46
		L359.01,70.46z"/>
	<path fill-rule="evenodd" clip-rule="evenodd" fill="#004F39" d="M333.738,78.974l-12.695,0.452l-0.899,42.302h3.445
		c3.433-13.896,12.105-24.068,25.706-30.795c6.88-3.435,13.304-5.375,19.43-5.828C356.315,81.364,344.655,79.426,333.738,78.974
		L333.738,78.974z"/>
	<polygon fill-rule="evenodd" clip-rule="evenodd" fill="#004F39" points="303.111,123.527 310.283,121.728 309.822,80.771 
		295.483,83.308 303.111,123.527 	"/>
	<path fill-rule="evenodd" clip-rule="evenodd" fill="#004F39" d="M392.499,165.527c-19.585-21.521-46.19-30.482-79.674-27.058
		c-22.123,2.244-40.818,13.758-56.062,34.679c-5.676,7.923-10.018,16.141-12.848,24.668c-2.699,7.924-3.447,13.895-2.249,18.238
		l1.794,16.291c1.496,11.509,3.285,18.685,5.388,21.829c2.831,4.043,3.578,14.344,1.94,31.088
		c-1.642,17.342-4.786,27.96-9.572,31.69l82.372-15.39l29.29,23.31c23.021,16.891,43.209,28.561,60.69,35.131
		c-11.059-34.979-14.939-72.796-11.807-113.451l-20.327-3.003c-14.207-3.581-22.426-9.42-24.968-17.486l3.74-3.588
		c3.138-2.544,6.731-4.63,10.462-6.127c11.661-4.638,23.022-2.688,33.938,5.834l12.555,47.689l13.308,2.387
		c9.86,2.396,17.189,5.377,21.965,9.117c-17.043-20.176-30.485-47.677-40.504-82.812
		C408.783,187.196,402.364,176.133,392.499,165.527L392.499,165.527z"/>
	<polygon fill-rule="evenodd" clip-rule="evenodd" fill="#004F39" points="284.269,87.65 271.866,91.832 286.507,129.498 
		294.882,125.614 284.269,87.65 	"/>
	<polygon fill-rule="evenodd" clip-rule="evenodd" fill="#004F39" points="259.604,98.706 250.188,104.237 271.866,135.776 
		278.29,131.444 259.604,98.706 	"/>
	<path fill-rule="evenodd" clip-rule="evenodd" fill="#004F39" d="M233.444,176.297l-29.446-5.388
		c-1.946,2.543-3.139,13.153-3.887,31.985c-0.748,21.982-0.299,24.676,1.344,8.066c1.051-10.908,6.429-18.975,16.143-24.058
		c4.787-2.386,9.421-3.734,14.051-4.179L233.444,176.297L233.444,176.297z"/>
	<polygon fill-rule="evenodd" clip-rule="evenodd" fill="#004F39" points="210.866,149.086 205.792,160.151 239.428,168.373 
		241.97,163.285 210.866,149.086 	"/>
	<polygon fill-rule="evenodd" clip-rule="evenodd" fill="#004F39" points="224.478,126.357 215.506,137.878 247.509,157.604 
		252.134,151.624 224.478,126.357 	"/>
	<polygon fill-rule="evenodd" clip-rule="evenodd" fill="#004F39" points="258.558,145.644 263.793,139.672 241.667,110.669 
		231.356,119.938 258.558,145.644 	"/>
</g>
</svg>
